inDegrees=yes
name=ik_S50_A10_T02
DataType=double
version=3
OpenSimVersion=4.3-2021-08-27-4bc7ad9
endheader
time	pelvis_tilt	pelvis_list	pelvis_rotation	pelvis_tx	pelvis_ty	pelvis_tz	hip_flexion_r	hip_adduction_r	hip_rotation_r	knee_angle_r	knee_angle_r_beta	ankle_angle_r	subtalar_angle_r	mtp_angle_r	hip_flexion_l	hip_adduction_l	hip_rotation_l	knee_angle_l	knee_angle_l_beta	ankle_angle_l	subtalar_angle_l	mtp_angle_l	lumbar_extension	lumbar_bending	lumbar_rotation	arm_flex_r	arm_add_r	arm_rot_r	elbow_flex_r	pro_sup_r	wrist_flex_r	wrist_dev_r	arm_flex_l	arm_add_l	arm_rot_l	elbow_flex_l	pro_sup_l	wrist_flex_l	wrist_dev_l
18.3599999999997	-1.284739070021886	-0.5883229395533921	34.01704467899177	0	0.9399999999999999	0	44.8993462503287	-9.999996817657777	-9.999817918764309	54.73304956013423	0.9552719244815764	0	0	0	44.8993462503287	-9.999996817657777	-9.999817918764309	54.73304956013423	0.9552719244815764	0	0	0	-0.7384408045528336	-0.8504112198141128	-0.3256788170138464	25.63790135433226	1.859849244634934	7.366553156872636	24.48468117137025	72.30945979245013	0	0	31.40033758756515	-1.937760081602327	10.55656458861568	38.56022445863168	78.29245128539262	0	0
18.3799999999997	-1.285300916089213	-0.5782790757410907	33.99398787851593	0	0.9399999999999999	0	44.8995084438905	-9.999996835517289	-9.999818576687014	54.73333702484224	0.9552769416872146	0	0	0	44.8995084438905	-9.999996835517289	-9.999818576687014	54.73333702484224	0.9552769416872146	0	0	0	-0.7238012872914588	-0.865419453755891	-0.2501287326297683	24.4895590520419	2.136622869239372	5.896435904777253	19.6163549748067	77.34914077008355	0	0	31.27140005900809	-1.683903276293876	10.47225434928866	36.23338263976434	78.68805301411332	0	0
18.3999999999997	-1.294974991114901	-0.5791323443457721	34.02336977237957	0	0.9399999999999999	0	44.89944084554521	-9.999996836830473	-9.999818518580986	54.73307948704159	0.9552724468046447	0	0	0	44.89944084554521	-9.999996836830473	-9.999818518580986	54.73307948704159	0.9552724468046447	0	0	0	-0.7267134925197042	-0.8744894919432293	-0.2056574691146318	23.29497258775469	2.247015032020223	5.181576391174705	16.49994220171521	80.33982222100499	0	0	29.80814803064018	-1.37001811985463	10.29800272828555	34.95156870252112	79.37420973219264	0	0
18.4199999999997	-1.317998886773857	-0.6521635147916612	34.07470024456656	0	0.9399999999999999	0	44.89942879833207	-9.999996840236458	-9.99981858597279	54.73298603497878	0.955270815758456	0	0	0	44.89942879833207	-9.999996840236458	-9.99981858597279	54.73298603497878	0.955270815758456	0	0	0	-0.787552697938517	-0.9191119939911175	-0.1319584135010307	22.17464157013545	2.350427362352972	4.866968626577711	14.53442287364013	82.00027702204574	0	0	28.54297543490095	-1.097702891812419	10.19394206190598	33.64884361725606	79.92049447930843	0	0
18.4399999999997	-1.325180959689817	-0.6837242162942541	34.07777117689673	0	0.9399999999999999	0	44.89935299139052	-9.999996838341048	-9.999818436912962	54.73275307119388	0.9552667497733714	0	0	0	44.89935299139052	-9.999996838341048	-9.999818436912962	54.73275307119388	0.9552667497733714	0	0	0	-0.8101022457846038	-0.9426495793948777	-0.1050230382334908	20.99427107476568	2.510758995989489	4.636889512767068	12.78276814780258	83.76032979588039	0	0	27.25219539178523	-0.857836997112302	9.991380294609112	32.39596874036393	80.57607897931689	0	0
18.4599999999997	-1.336971931786641	-0.7170006747655785	34.11734967691301	0	0.9399999999999999	0	44.89974856407612	-9.999996869898409	-9.999819747320599	54.73364002443115	0.9552822300276732	0	0	0	44.89974856407612	-9.999996869898409	-9.999819747320599	54.73364002443115	0.9552822300276732	0	0	0	-0.8420607163350403	-0.9598403555441301	-0.09858895431024799	18.74861058111577	2.945708574967442	4.35865100690751	11.86312208227846	85.76162809887924	0	0	26.07051808106139	-0.6219791298766346	9.765162084136767	31.14309147509914	81.50461660714905	0	0
18.47999999999969	-1.343213623186831	-0.73881276999918	34.12954590951695	0	0.9399999999999999	0	44.89901748635805	-9.999996823554044	-9.99981761989927	54.73182245801482	0.9552505075093345	0	0	0	44.89901748635805	-9.999996823554044	-9.99981761989927	54.73182245801482	0.9552505075093345	0	0	0	-0.8612815559248336	-0.9541013447808329	-0.07856814461436222	17.85575913206047	2.884866250134377	3.624735932211072	8.489930401872808	88.67125617699628	0	0	24.9171122821315	-0.1771564735697326	9.310364039032644	27.63797874266798	83.66935942273774	0	0
18.49999999999969	-1.361864781799758	-0.75243859569734	34.17644278573192	0	0.9399999999999999	0	44.89912025418768	-9.999996834829156	-9.999818036443797	54.73200471540862	0.9552536885009424	0	0	0	44.89912025418768	-9.999996834829156	-9.999818036443797	54.73200471540862	0.9552536885009424	0	0	0	-0.8850557782069186	-0.953924775908402	-0.06964047861978499	17.00859279206745	2.807534872568075	3.559678127062591	7.103596787037195	89.79023465467974	0	0	23.98054280823437	-0.07764243001244706	9.472493453691476	28.51875067944977	83.62998831139906	0	0
18.51999999999969	-1.408417337387809	-0.7913087663511201	34.20727131937525	0	0.9399999999999999	0	44.89920771900606	-9.999996844401869	-9.999818390520581	54.73215990545049	0.9552563970781394	0	0	0	44.89920771900606	-9.999996844401869	-9.999818390520581	54.73215990545049	0.9552563970781394	0	0	0	-0.9459826498427794	-0.9592512694901372	-0.08002201248555636	16.20475921828932	2.711001367172353	3.885885574501049	6.313924639533069	90.23038898940818	0	0	23.08973448136617	0.1574590354797107	9.590762583724619	27.42045993490544	84.19146740276609	0	0
18.53999999999969	-1.440945691272444	-0.816914170782096	34.19960046132877	0	0.9399999999999999	0	44.89889151989856	-9.999996825471211	-9.999817497291298	54.73135571431136	0.9552423612949462	0	0	0	44.89889151989856	-9.999996825471211	-9.999817497291298	54.73135571431136	0.9552423612949462	0	0	0	-0.986462516667525	-0.9617407188534941	-0.04464937981353957	15.41604959373504	2.629856353791696	4.224596608341598	5.573471046284169	90.55546470247926	0	0	22.09696965533104	0.4943606846181683	9.518600694247546	24.65314216509729	85.06027556902373	0	0
18.55999999999969	-1.478157427836298	-0.8529950999698528	34.2457583722903	0	0.9399999999999999	0	44.89899030749463	-9.999996836289604	-9.999817897452115	54.7315310462818	0.9552454214151144	0	0	0	44.89899030749463	-9.999996836289604	-9.999817897452115	54.7315310462818	0.9552454214151144	0	0	0	-1.038803929622917	-0.9686800655767167	-0.1055902785913198	14.56218651758191	2.767636637648244	4.967761678438145	7.10429001814047	89.60331174999206	0	0	21.28980649108951	0.5760385011063437	9.579072552244934	25.36183767971194	85.1491099577861	0	0
18.57999999999969	-1.511862716092943	-0.8917268877022572	34.22317361350357	0	0.9399999999999999	0	44.89862266723217	-9.999996813913256	-9.999816850637309	54.7305967674172	0.9552291151727954	0	0	0	44.89862266723217	-9.999996813913256	-9.999816850637309	54.7305967674172	0.9552291151727954	0	0	0	-1.089846966334294	-0.9764703792690326	-0.0846986253001589	13.88565925584654	2.557210154525329	4.902000806553848	4.510197507804079	91.09116031425724	0	0	19.66691276264753	0.9643617029049274	9.174933260348551	23.09309314027865	86.72744263484024	0	0
18.59999999999969	-1.544752246436407	-0.92307580789684	34.18840967461082	0	0.9399999999999999	0	44.89870872401539	-9.999996823340732	-9.999817199380036	54.73074963807702	0.9552317832691389	0	0	0	44.89870872401539	-9.999996823340732	-9.999817199380036	54.73074963807702	0.9552317832691389	0	0	0	-1.135235319336032	-0.9826820244251356	-0.08263097539889805	14.06313465153416	2.389638957309038	4.636631980227397	2.800419174497828	91.83896213038771	0	0	18.99369655076809	1.12682886164204	8.899248156865328	21.82849712113612	87.51715842295155	0	0
18.61999999999969	-1.575033332146659	-0.9548528657035534	34.18771036236924	0	0.9399999999999999	0	44.89877318259235	-9.99999683038704	-9.999817460317308	54.73086417666626	0.9552337823446416	0	0	0	44.89877318259235	-9.99999683038704	-9.999817460317308	54.73086417666626	0.9552337823446416	0	0	0	-1.179679121873882	-0.988845692195362	-0.1333132688400988	13.36155065569877	2.372735117265274	4.950731903310535	2.345807252900551	91.82161734151794	0	0	18.28904773027811	1.238566677027635	8.685445177576602	20.67263626962963	88.21360864835094	0	0
